<svg width="236" height="64" viewBox="0 0 236 64" fill="none" xmlns="http://www.w3.org/2000/svg">
<path d="M64 32C64 49.6731 49.6731 64 32 64C14.3269 64 0 49.6731 0 32C0 14.3269 14.3269 0 32 0C49.6731 0 64 14.3269 64 32Z" fill="white"/>
<path d="M27.2437 36.5475L28.9514 35.9698L38.5667 48.3813L38.3079 49.3472L37.9196 50.7961L38.4973 52.5038L39.6874 53.858L40.6533 54.1168L41.6193 54.3756L42.5852 54.6344L43.6805 54.4103L44.9053 53.7032L45.647 52.8667L46.1647 50.9348L45.9405 49.8395L44.5263 47.39L43.5604 47.1312L42.1115 46.7429L41.0162 46.9671L31.5303 34.0726L33.1433 31.9166L34.0145 30.5971L34.6615 28.1823L34.8256 25.6381L33.8943 23.318L38.181 20.8431L38.6639 20.9725L39.1469 21.1019L39.6298 21.2314L40.1128 21.3608L41.2081 21.1366L42.3035 20.9125L43.6576 19.7224L44.0459 18.2735L43.8217 17.1782L43.1146 15.9534L42.2781 15.2117L40.3462 14.694L39.2509 14.9182L38.0262 15.6253L37.7673 16.5912L37.3791 18.0401L33.0925 20.515L32.6095 20.3855L31.773 19.6438L30.1 18.1602L29.1341 17.9014L27.6852 17.5132L24.7874 16.7367L22.7261 16.702L18.5689 18.6939L16.473 20.7205L15.4724 22.523L14.9548 24.4548L14.5665 25.9037L14.5319 27.965L14.9801 30.1556L16.3944 32.6051L16.7479 33.2175L17.5844 33.9593L18.8665 34.9702L20.7983 35.4878L19.5417 40.1777L18.9293 40.5313L18.3169 40.8848L17.7045 41.2384L17.0922 41.5919L16.3157 44.4897L17.0228 45.7145L17.3764 46.3268L18.2129 47.0686L20.1447 47.5863L21.8525 47.0086L23.2066 45.8185L23.7242 43.8866L23.5001 42.7913L22.4394 40.9542L23.6041 36.6075L24.5701 36.8663L26.1484 36.7716L27.2437 36.5475Z" fill="#0E0E10" stroke="black"/>
<path d="M97.792 32.448H102.528V41.536C101.312 42.4533 99.904 43.1573 98.304 43.648C96.704 44.1387 95.0933 44.384 93.472 44.384C91.1467 44.384 89.056 43.8933 87.2 42.912C85.344 41.9093 83.8827 40.5333 82.816 38.784C81.7707 37.0133 81.248 35.0187 81.248 32.8C81.248 30.5813 81.7707 28.5973 82.816 26.848C83.8827 25.0773 85.3547 23.7013 87.232 22.72C89.1093 21.7173 91.2213 21.216 93.568 21.216C95.5307 21.216 97.312 21.5467 98.912 22.208C100.512 22.8693 101.856 23.8293 102.944 25.088L99.616 28.16C98.016 26.4747 96.0853 25.632 93.824 25.632C92.3947 25.632 91.1253 25.9307 90.016 26.528C88.9067 27.1253 88.0427 27.968 87.424 29.056C86.8053 30.144 86.496 31.392 86.496 32.8C86.496 34.1867 86.8053 35.424 87.424 36.512C88.0427 37.6 88.896 38.4533 89.984 39.072C91.0933 39.6693 92.352 39.968 93.76 39.968C95.2533 39.968 96.5973 39.648 97.792 39.008V32.448ZM106.992 26.784H111.984V44H106.992V26.784ZM109.488 24.384C108.57 24.384 107.824 24.1173 107.248 23.584C106.672 23.0507 106.384 22.3893 106.384 21.6C106.384 20.8107 106.672 20.1493 107.248 19.616C107.824 19.0827 108.57 18.816 109.488 18.816C110.405 18.816 111.152 19.072 111.728 19.584C112.304 20.096 112.592 20.736 112.592 21.504C112.592 22.336 112.304 23.0293 111.728 23.584C111.152 24.1173 110.405 24.384 109.488 24.384ZM127.721 43.168C127.23 43.5307 126.622 43.808 125.897 44C125.193 44.1707 124.446 44.256 123.657 44.256C121.609 44.256 120.019 43.7333 118.889 42.688C117.779 41.6427 117.225 40.1067 117.225 38.08V31.008H114.569V27.168H117.225V22.976H122.217V27.168H126.505V31.008H122.217V38.016C122.217 38.7413 122.398 39.3067 122.76 39.712C123.145 40.096 123.678 40.288 124.361 40.288C125.15 40.288 125.822 40.0747 126.377 39.648L127.721 43.168ZM147.297 44.384C145.527 44.384 143.809 44.1493 142.145 43.68C140.503 43.1893 139.18 42.56 138.177 41.792L139.937 37.888C140.897 38.592 142.039 39.1573 143.361 39.584C144.684 40.0107 146.007 40.224 147.329 40.224C148.801 40.224 149.889 40.0107 150.593 39.584C151.297 39.136 151.649 38.5493 151.649 37.824C151.649 37.2907 151.436 36.8533 151.009 36.512C150.604 36.1493 150.071 35.8613 149.409 35.648C148.769 35.4347 147.895 35.2 146.785 34.944C145.079 34.5387 143.681 34.1333 142.593 33.728C141.505 33.3227 140.567 32.672 139.777 31.776C139.009 30.88 138.625 29.6853 138.625 28.192C138.625 26.8907 138.977 25.7173 139.681 24.672C140.385 23.6053 141.441 22.7627 142.849 22.144C144.279 21.5253 146.017 21.216 148.065 21.216C149.495 21.216 150.892 21.3867 152.257 21.728C153.623 22.0693 154.817 22.56 155.841 23.2L154.241 27.136C152.172 25.9627 150.103 25.376 148.033 25.376C146.583 25.376 145.505 25.6107 144.801 26.08C144.119 26.5493 143.777 27.168 143.777 27.936C143.777 28.704 144.172 29.28 144.961 29.664C145.772 30.0267 146.999 30.3893 148.641 30.752C150.348 31.1573 151.745 31.5627 152.833 31.968C153.921 32.3733 154.849 33.0133 155.617 33.888C156.407 34.7627 156.801 35.9467 156.801 37.44C156.801 38.72 156.439 39.8933 155.713 40.96C155.009 42.0053 153.943 42.8373 152.513 43.456C151.084 44.0747 149.345 44.384 147.297 44.384ZM168.312 44.256C166.477 44.256 164.824 43.8827 163.352 43.136C161.901 42.368 160.76 41.312 159.928 39.968C159.117 38.624 158.712 37.0987 158.712 35.392C158.712 33.6853 159.117 32.16 159.928 30.816C160.76 29.472 161.901 28.4267 163.352 27.68C164.824 26.912 166.477 26.528 168.312 26.528C170.125 26.528 171.704 26.912 173.048 27.68C174.413 28.4267 175.405 29.504 176.024 30.912L172.152 32.992C171.256 31.4133 169.965 30.624 168.28 30.624C166.978 30.624 165.901 31.0507 165.048 31.904C164.194 32.7573 163.768 33.92 163.768 35.392C163.768 36.864 164.194 38.0267 165.048 38.88C165.901 39.7333 166.978 40.16 168.28 40.16C169.986 40.16 171.277 39.3707 172.152 37.792L176.024 39.904C175.405 41.2693 174.413 42.336 173.048 43.104C171.704 43.872 170.125 44.256 168.312 44.256ZM185.842 26.528C188.508 26.528 190.556 27.168 191.986 28.448C193.415 29.7067 194.13 31.616 194.13 34.176V44H189.458V41.856C188.519 43.456 186.77 44.256 184.21 44.256C182.887 44.256 181.735 44.032 180.754 43.584C179.794 43.136 179.058 42.5173 178.546 41.728C178.034 40.9387 177.778 40.0427 177.778 39.04C177.778 37.44 178.375 36.1813 179.57 35.264C180.786 34.3467 182.652 33.888 185.17 33.888H189.138C189.138 32.8 188.807 31.968 188.146 31.392C187.484 30.7947 186.492 30.496 185.17 30.496C184.252 30.496 183.346 30.6453 182.45 30.944C181.575 31.2213 180.828 31.6053 180.21 32.096L178.418 28.608C179.356 27.9467 180.476 27.4347 181.778 27.072C183.1 26.7093 184.455 26.528 185.842 26.528ZM185.458 40.896C186.311 40.896 187.068 40.704 187.73 40.32C188.391 39.9147 188.86 39.328 189.138 38.56V36.8H185.714C183.666 36.8 182.642 37.472 182.642 38.816C182.642 39.456 182.887 39.968 183.378 40.352C183.89 40.7147 184.583 40.896 185.458 40.896ZM209.112 26.528C211.245 26.528 212.962 27.168 214.264 28.448C215.586 29.728 216.248 31.6267 216.248 34.144V44H211.256V34.912C211.256 33.5467 210.957 32.5333 210.36 31.872C209.762 31.1893 208.898 30.848 207.768 30.848C206.509 30.848 205.506 31.2427 204.76 32.032C204.013 32.8 203.64 33.952 203.64 35.488V44H198.648V26.784H203.416V28.8C204.077 28.0747 204.898 27.52 205.88 27.136C206.861 26.7307 207.938 26.528 209.112 26.528Z" fill="white"/>
</svg>
